<svg width="23" height="30" viewBox="0 0 23 30" fill="none" xmlns="http://www.w3.org/2000/svg">
<path fill-rule="evenodd" clip-rule="evenodd" d="M11.5 2.44909C9.06001 2.44909 6.71995 3.48121 4.99462 5.31838C3.26928 7.15556 2.3 9.6473 2.3 12.2455C2.3 16.0392 4.6181 19.7204 7.15985 22.5773C8.4072 23.9793 9.65847 25.127 10.5992 25.9247C10.9493 26.2215 11.2551 26.4688 11.5 26.6615C11.7449 26.4688 12.0507 26.2215 12.4008 25.9247C13.3415 25.127 14.5928 23.9793 15.8402 22.5773C18.3819 19.7204 20.7 16.0392 20.7 12.2455C20.7 9.6473 19.7307 7.15556 18.0054 5.31838C16.28 3.48121 13.94 2.44909 11.5 2.44909ZM11.5 28.1646C10.8621 29.1834 10.8618 29.1832 10.8615 29.183L10.8582 29.1807L10.8505 29.1752L10.8242 29.1562C10.8018 29.14 10.7698 29.1168 10.729 29.0866C10.6473 29.0264 10.5299 28.9386 10.382 28.8248C10.0861 28.5973 9.66731 28.2652 9.16645 27.8406C8.16653 26.9927 6.8303 25.7679 5.49015 24.2616C2.8569 21.3019 0 17.0236 0 12.2455C6.85453e-08 8.99776 1.2116 5.88308 3.36827 3.58661C5.52494 1.29014 8.45001 0 11.5 0C14.55 0 17.4751 1.29014 19.6317 3.58661C21.7884 5.88308 23 8.99776 23 12.2455C23 17.0236 20.1431 21.3019 17.5098 24.2616C16.1697 25.7679 14.8335 26.9927 13.8336 27.8406C13.3327 28.2652 12.9139 28.5973 12.618 28.8248C12.4701 28.9386 12.3527 29.0264 12.271 29.0866C12.2302 29.1168 12.1982 29.14 12.1758 29.1562L12.1495 29.1752L12.1418 29.1807L12.1394 29.1824C12.1391 29.1826 12.1379 29.1834 11.5 28.1646ZM11.5 28.1646L12.1379 29.1834C11.7516 29.4577 11.2478 29.4572 10.8615 29.183L11.5 28.1646ZM11.5 9.79637C10.2297 9.79637 9.2 10.8929 9.2 12.2455C9.2 13.5981 10.2297 14.6946 11.5 14.6946C12.7703 14.6946 13.8 13.5981 13.8 12.2455C13.8 10.8929 12.7703 9.79637 11.5 9.79637ZM6.9 12.2455C6.9 9.54027 8.95949 7.34728 11.5 7.34728C14.0405 7.34728 16.1 9.54027 16.1 12.2455C16.1 14.9507 14.0405 17.1436 11.5 17.1436C8.95949 17.1436 6.9 14.9507 6.9 12.2455Z" fill="black" fill-opacity="0.4"/>
</svg>
